<?xml version="1.0" encoding="iso-8859-1"?>
<!-- Uploaded to: SVG Repo, www.svgrepo.com, Generator: SVG Repo Mixer Tools -->
<svg fill="#000000" height="800px" width="800px" version="1.1" id="Layer_1" xmlns="http://www.w3.org/2000/svg" xmlns:xlink="http://www.w3.org/1999/xlink" 
	 viewBox="0 0 512.003 512.003" xml:space="preserve">
<g transform="translate(0 -1)">
	<g>
		<g>
			<path d="M322.86,239.937H189.143c-0.777,0-1.408,0.631-1.408,1.408v271.659h136.533V241.345
				C324.268,240.568,323.637,239.937,322.86,239.937z M256.002,371.47l-19.567,19.567c-1.664,1.664-3.849,2.5-6.033,2.5
				c-2.185,0-4.369-0.836-6.033-2.5c-3.337-3.336-3.337-8.73,0-12.066l23.1-23.1v-18.534l-11.034,11.034
				c-1.664,1.664-3.849,2.5-6.033,2.5c-2.185,0-4.369-0.836-6.033-2.5c-3.337-3.337-3.337-8.73,0-12.066l23.1-23.1v-6.571
				c-9.907-3.533-17.067-12.919-17.067-24.03c0-14.114,11.486-25.6,25.6-25.6s25.6,11.486,25.6,25.6
				c0,11.11-7.159,20.497-17.067,24.03v6.571l23.1,23.1c3.337,3.337,3.337,8.73,0,12.066c-1.664,1.664-3.849,2.5-6.033,2.5
				c-2.185,0-4.369-0.836-6.033-2.5l-11.034-11.034v18.534l23.1,23.1c3.337,3.337,3.337,8.73,0,12.066
				c-1.664,1.664-3.849,2.5-6.033,2.5c-2.185,0-4.369-0.836-6.033-2.5L256.002,371.47z M307.202,427.67h-8.533v8.533
				c0,4.719-3.814,8.533-8.533,8.533s-8.533-3.814-8.533-8.533v-17.067c0-4.719,3.814-8.533,8.533-8.533h17.067
				c4.719,0,8.533,3.814,8.533,8.533S311.921,427.67,307.202,427.67z"/>
			<path d="M391.98,71.434C386.383,31.464,328.731,1,256.002,1S125.621,31.464,120.023,71.434
				c-10.325,4.267-17.621,14.421-17.621,26.266v386.867c0,15.676,12.757,28.433,28.433,28.433h39.834V241.341
				c0-10.18,8.294-18.475,18.475-18.475H322.86c10.18,0,18.475,8.294,18.475,18.475V513h39.834
				c15.676,0,28.433-12.757,28.433-28.433V97.7C409.602,85.855,402.306,75.701,391.98,71.434z M341.335,180.345
				c0,9.335-7.595,16.922-16.922,16.922H187.59c-9.327,0-16.922-7.586-16.922-16.922v-51.482c0-9.336,7.595-16.93,16.922-16.93
				h136.823c9.327,0,16.922,7.595,16.922,16.93V180.345z M137.96,69.267c8.593-28.493,59.076-51.2,118.042-51.2
				s109.449,22.707,118.042,51.2H137.96z"/>
			<polygon points="187.735,180.345 324.268,180.2 324.268,128.863 187.59,129 			"/>
		</g>
	</g>
</g>
</svg>